<svg id="图层_1" data-name="图层 1" xmlns="http://www.w3.org/2000/svg" viewBox="0 0 90 90"><defs><style>.cls-1,.cls-5{fill:#d48a46;}.cls-1{opacity:0.55;}.cls-2{fill:#42629c;}.cls-3,.cls-7{fill:#e3a96c;}.cls-4{fill:#fff;}.cls-6{fill:#efe5dc;}.cls-7{opacity:0.65;}</style></defs><title>未标题-2</title><path class="cls-1" d="M77,29.61a8.29,8.29,0,1,0-8.29,8.28A8.2,8.2,0,0,0,77,29.61Z"/><path class="cls-2" d="M70.23,32.37H64.7L46,9.6,27.3,32.37H21.77L44.21,4.54a2.22,2.22,0,0,1,3.58,0Z"/><rect class="cls-3" x="4" y="36.79" width="84" height="40.89"/><path class="cls-4" d="M46,67.74a2.21,2.21,0,0,1-2.21-2.21V49a2.21,2.21,0,0,1,4.42,0V65.53A2.21,2.21,0,0,1,46,67.74Z"/><path class="cls-4" d="M67,67.44a2.21,2.21,0,0,1-2.21-2.21V56.39a2.21,2.21,0,1,1,4.42,0v8.84A2.21,2.21,0,0,1,67,67.44Z"/><path class="cls-4" d="M67,58.89a2.19,2.19,0,0,1-1.56-.64L57.7,50.51a2.21,2.21,0,0,1,3.13-3.13L67,53.56l6.17-6.18a2.21,2.21,0,0,1,3.13,3.13l-7.74,7.74A2.19,2.19,0,0,1,67,58.89Z"/><path class="cls-4" d="M24.45,67.74H17.26a2.21,2.21,0,0,1-2.21-2.21V49a2.21,2.21,0,0,1,2.21-2.21h7.19a10.5,10.5,0,1,1,0,21Zm-5-4.42h5a6.08,6.08,0,1,0,0-12.16h-5Z"/><rect class="cls-5" x="46" y="36.79" width="42" height="40.89"/><path class="cls-6" d="M48.21,49V65.53A2.22,2.22,0,0,1,46,67.74v-21A2.21,2.21,0,0,1,48.21,49Z"/><path class="cls-6" d="M67,67.44a2.21,2.21,0,0,1-2.21-2.21V56.39a2.21,2.21,0,1,1,4.42,0v8.84A2.21,2.21,0,0,1,67,67.44Z"/><path class="cls-6" d="M67,58.89a2.19,2.19,0,0,1-1.56-.64L57.7,50.51a2.21,2.21,0,0,1,3.13-3.13L67,53.56l6.17-6.18a2.21,2.21,0,0,1,3.13,3.13l-7.74,7.74A2.19,2.19,0,0,1,67,58.89Z"/><path class="cls-7" d="M47.11,5.84a5.53,5.53,0,1,0-5.53,5.53A5.53,5.53,0,0,0,47.11,5.84Z"/><path class="cls-3" d="M43.79,28.52A2.79,2.79,0,1,0,41,31.31,2.78,2.78,0,0,0,43.79,28.52Z"/><path class="cls-3" d="M57.05,8.61a1.66,1.66,0,1,0-1.66,1.65A1.66,1.66,0,0,0,57.05,8.61Z"/><path class="cls-3" d="M16.16,29.56h7.73v2.3H16.16Z"/><path class="cls-3" d="M21.17,26.84v7.74H18.88V26.84Z"/></svg>