<svg id="图层_1" data-name="图层 1" xmlns="http://www.w3.org/2000/svg" viewBox="0 0 90 90"><defs><style>.cls-1{fill:#63b0ea;}.cls-2{fill:#42629c;}.cls-3{fill:#fff;}.cls-4{fill:#0e85c1;}.cls-5{fill:#dde7ed;}.cls-6{fill:#d48a46;opacity:0.55;}.cls-7,.cls-8{fill:#e3a96c;}.cls-7{opacity:0.65;}</style></defs><title>未标题-2</title><rect class="cls-1" x="9" y="27" width="74" height="51"/><path class="cls-2" d="M9,82H83a0,0,0,0,1,0,0v0a4,4,0,0,1-4,4H13a4,4,0,0,1-4-4v0a0,0,0,0,1,0,0Z"/><rect class="cls-3" x="28" y="57.39" width="4" height="10.61"/><rect class="cls-3" x="20" y="54" width="4" height="13.65"/><rect class="cls-3" x="36" y="63.45" width="4" height="4.55"/><rect class="cls-3" x="44" y="38" width="4" height="30"/><rect class="cls-3" x="52" y="52.81" width="4" height="18.19"/><rect class="cls-3" x="60" y="58.87" width="4" height="12.13"/><rect class="cls-3" x="68" y="48.26" width="4" height="22.74"/><rect class="cls-1" x="46" y="27" width="37" height="51"/><rect class="cls-4" x="46" y="27" width="37" height="51"/><rect class="cls-5" x="46" y="38" width="2" height="30"/><rect class="cls-5" x="52" y="49.4" width="4" height="18.6"/><rect class="cls-5" x="60" y="55.6" width="4" height="12.4"/><rect class="cls-5" x="68" y="44.75" width="4" height="23.25"/><path class="cls-6" d="M89,28.5c0-4.14-2.53-7.5-7-7.5a7.79,7.79,0,0,0-8,7.5A7.79,7.79,0,0,0,82,36C86.54,36,89,32.7,89,28.5Z"/><path class="cls-7" d="M58,20a5,5,0,1,0-5,5A5,5,0,0,0,58,20Z"/><path class="cls-8" d="M23,28.48A2.52,2.52,0,1,0,20.52,31,2.5,2.5,0,0,0,23,28.48Z"/><path class="cls-8" d="M57,42.46h7v2.08H57Z"/><path class="cls-8" d="M61.54,40v7H59.46V40Z"/><path class="cls-8" d="M58,5.46h7V7.54H58Z"/><path class="cls-8" d="M62.58,3v7H60.5V3Z"/></svg>