<svg id="图层_1" data-name="图层 1" xmlns="http://www.w3.org/2000/svg" viewBox="0 0 90 90"><defs><style>.cls-1{fill:#d48a46;opacity:0.55;}.cls-2,.cls-7{fill:#e3a96c;}.cls-2{opacity:0.65;}.cls-3{fill:#6dce5f;}.cls-4{fill:#35b21b;}.cls-5{fill:none;stroke:#fff;stroke-miterlimit:10;stroke-width:4px;}.cls-6{fill:#ddeadc;}.cls-8{fill:#42629c;}</style></defs><title>未标题-2</title><path class="cls-1" d="M82,24.5A7.5,7.5,0,1,0,74.5,32,7.43,7.43,0,0,0,82,24.5Z"/><path class="cls-2" d="M32,24a5,5,0,1,0-5,5A5,5,0,0,0,32,24Z"/><path class="cls-2" d="M72,1.5A2.5,2.5,0,1,0,69.5,4,2.48,2.48,0,0,0,72,1.5Z"/><path class="cls-2" d="M45,7.5A1.5,1.5,0,1,0,43.5,9,1.5,1.5,0,0,0,45,7.5Z"/><path class="cls-3" d="M75,15V87H11V36H28.25A3.75,3.75,0,0,0,32,32.25V15Z"/><rect class="cls-4" x="42" y="15" width="33" height="72"/><circle class="cls-5" cx="43" cy="58" r="15"/><polyline class="cls-5" points="42 51 42 60 49 60"/><path class="cls-6" d="M43,41c-.34,0-.67,0-1,0v4a8.27,8.27,0,0,1,1,0,13,13,0,0,1,0,26c-.34,0-.67,0-1,0v4c.33,0,.66,0,1,0a17,17,0,0,0,0-34Z"/><polygon class="cls-6" points="49 58 49 62 42 62 42 51 44 51 44 58 49 58"/><path class="cls-7" d="M49,13.46h7v2.08H49Z"/><path class="cls-7" d="M53.54,11v7H51.46V11Z"/><path class="cls-8" d="M28,15V28.25A3.75,3.75,0,0,1,24.25,32H11l4-4h7.53A1.47,1.47,0,0,0,24,26.53V19Z"/></svg>